<?xml version="1.0" standalone="no"?>
<!DOCTYPE svg PUBLIC "-//W3C//DTD SVG 20010904//EN"
 "http://www.w3.org/TR/2001/REC-SVG-20010904/DTD/svg10.dtd">
<svg version="1.0" xmlns="http://www.w3.org/2000/svg"
 width="256.000000pt" height="256.000000pt" viewBox="0 0 256.000000 256.000000"
 preserveAspectRatio="xMidYMid meet">

<g transform="translate(0.000000,256.000000) scale(0.100000,-0.100000)"
fill="#000000" stroke="none">
<path d="M237 2488 c-22 -13 -45 -38 -55 -59 -15 -32 -22 -37 -60 -42 -68 -7
-122 -72 -122 -144 0 -30 32 -89 59 -110 28 -22 85 -33 119 -24 30 9 33 8 77
-54 40 -56 45 -70 45 -117 0 -122 66 -292 144 -376 25 -26 71 -62 103 -78 49
-25 70 -29 135 -29 69 0 81 3 120 30 28 20 53 49 71 85 26 50 28 62 24 135 -5
116 -37 177 -147 286 -64 63 -108 97 -160 123 -40 20 -79 36 -86 36 -7 0 -31
24 -53 54 l-40 54 20 38 c38 76 13 159 -61 196 -46 24 -87 22 -133 -4z m126
-90 c18 -24 19 -31 8 -55 -7 -15 -21 -33 -32 -41 -27 -19 -24 -38 16 -93 35
-49 43 -69 26 -69 -4 0 -20 -11 -34 -25 l-25 -26 -39 55 c-45 65 -55 71 -93
51 -37 -19 -60 -19 -88 1 -32 22 -27 79 9 107 24 17 31 18 63 7 46 -15 66 -1
66 46 0 72 81 99 123 42z m196 -356 c82 -41 194 -151 232 -227 56 -115 35
-237 -47 -271 -174 -73 -375 163 -362 424 3 64 7 77 28 94 30 24 71 19 149
-20z"/>
<path d="M891 2460 c-106 -24 -154 -151 -92 -239 61 -85 191 -84 255 2 16 21
21 43 21 87 0 44 -5 66 -21 87 -39 52 -103 76 -163 63z"/>
<path d="M1579 2180 l-57 -50 -43 20 c-77 34 -157 21 -214 -36 -19 -18 -41
-34 -48 -34 -8 0 -33 -7 -56 -15 -98 -34 -161 -123 -161 -227 0 -140 93 -232
235 -233 59 0 77 4 118 28 51 30 102 91 112 135 4 16 23 38 46 55 69 48 94
135 64 232 -4 16 7 31 55 70 49 40 60 54 58 75 -5 44 -45 37 -109 -20z m-145
-96 c11 -4 -16 -33 -97 -101 -61 -52 -116 -105 -121 -118 -11 -28 6 -55 35
-55 10 0 71 45 136 101 116 98 118 100 121 72 5 -40 -25 -89 -65 -108 -19 -9
-38 -26 -42 -38 -45 -115 -77 -147 -159 -154 -86 -8 -162 64 -162 153 0 92 72
164 165 164 26 0 38 8 60 36 36 47 84 65 129 48z"/>
<path d="M130 1608 c-49 -34 -72 -83 -67 -141 7 -82 71 -140 152 -140 151 0
210 195 85 281 -24 16 -47 22 -85 22 -38 0 -61 -6 -85 -22z"/>
<path d="M1655 1535 c-33 -7 -318 -63 -633 -125 -534 -105 -574 -114 -582
-135 -11 -29 -69 -40 -86 -16 -11 14 -24 13 -140 -8 -162 -30 -181 -37 -200
-73 -40 -77 57 -276 179 -367 140 -104 268 -130 466 -92 62 12 120 20 127 17
8 -3 14 -20 14 -41 0 -20 7 -52 15 -72 8 -19 15 -37 15 -39 0 -2 -94 -4 -210
-4 l-210 0 -32 -29 -33 -29 0 -146 0 -146 28 -27 c24 -25 36 -28 107 -31 l80
-4 0 -53 c0 -39 4 -54 16 -59 20 -8 1388 -8 1408 0 12 5 16 20 16 59 l0 53 80
4 c71 3 83 6 107 31 l28 27 0 146 0 146 -33 29 -32 29 -205 0 -204 0 32 51
c26 43 32 64 35 125 4 68 3 73 -21 89 -31 20 -58 13 -90 -23 -61 -71 -62 -71
-61 36 l0 97 55 55 c30 30 61 65 69 77 13 20 51 30 325 83 382 75 406 82 439
120 50 60 42 149 -17 194 -48 35 -71 37 -181 16 -56 -11 -102 -20 -104 -20 -1
0 -7 -11 -12 -24 -10 -28 -70 -42 -83 -20 -11 19 -37 18 -152 -6 -53 -11 -103
-20 -110 -20 -9 0 -16 18 -21 47 -13 89 -55 107 -189 78z m-171 -675 c25 -42
27 -160 5 -225 l-14 -40 -282 -3 -281 -2 -17 45 -18 45 40 82 c45 93 75 134
90 125 6 -4 25 -43 44 -87 18 -44 37 -80 41 -80 5 0 23 29 40 65 17 36 35 64
42 62 6 -2 14 -23 17 -46 3 -24 12 -47 20 -51 9 -6 14 -28 14 -69 0 -52 2 -58
17 -50 26 14 107 117 135 173 55 109 72 117 107 56z m196 -202 c0 -12 -10 -32
-22 -45 -18 -20 -31 -23 -87 -23 l-66 1 50 25 c27 14 61 34 75 44 33 26 50 25
50 -2z m-440 -278 l0 -130 -407 2 -408 3 -3 119 c-2 89 1 121 10 128 7 4 192
8 411 8 l397 0 0 -130z m888 122 c9 -7 12 -39 10 -128 l-3 -119 -407 -3 -408
-2 0 130 0 130 398 0 c218 0 403 -4 410 -8z"/>
</g>
</svg>
