<?xml version="1.0" standalone="no"?>
<!DOCTYPE svg PUBLIC "-//W3C//DTD SVG 20010904//EN"
 "http://www.w3.org/TR/2001/REC-SVG-20010904/DTD/svg10.dtd">
<svg version="1.0" xmlns="http://www.w3.org/2000/svg"
 width="256.000000pt" height="256.000000pt" viewBox="0 0 256.000000 256.000000"
 preserveAspectRatio="xMidYMid meet">

<g transform="translate(0.000000,256.000000) scale(0.100000,-0.100000)"
fill="#000000" stroke="none">
<path d="M1157 2479 c-267 -26 -511 -139 -710 -328 -495 -471 -501 -1253 -12
-1734 285 -281 705 -402 1095 -317 482 105 851 488 935 969 20 110 19 316 0
422 -77 415 -353 753 -741 908 -170 68 -381 98 -567 80z m309 -64 c492 -85
869 -465 949 -955 37 -231 3 -462 -100 -677 -59 -125 -113 -201 -215 -307
-146 -151 -329 -258 -538 -313 -129 -34 -344 -43 -477 -19 -369 64 -676 294
-841 631 -78 160 -105 273 -111 465 -7 214 19 346 103 529 156 338 502 597
869 650 98 14 266 12 361 -4z"/>
<path d="M1128 2309 c-335 -49 -628 -261 -780 -564 -80 -159 -113 -319 -106
-512 8 -184 50 -332 139 -484 55 -95 90 -129 130 -129 31 0 86 53 721 687 378
378 693 700 699 715 16 40 1 69 -58 112 -193 141 -495 212 -745 175z m280 -54
c89 -9 218 -48 310 -94 91 -46 162 -96 162 -114 0 -7 -69 -81 -153 -165 l-153
-152 -36 37 c-66 68 -88 163 -48 203 29 29 35 67 17 106 -23 48 -62 56 -255
52 l-164 -3 -24 -28 c-33 -38 -32 -86 2 -127 23 -26 25 -37 20 -71 -10 -61
-31 -97 -107 -175 -109 -114 -109 -111 -109 -429 l0 -270 -181 -180 -180 -180
-30 35 c-46 53 -135 244 -158 339 -86 348 22 712 282 957 168 159 373 247 622
268 41 3 71 1 183 -9z m43 -194 c20 -16 22 -23 13 -38 -8 -14 -26 -19 -73 -21
-45 -2 -64 -7 -68 -18 -8 -21 14 -34 60 -34 36 0 37 -1 37 -36 0 -59 20 -109
66 -166 24 -29 44 -55 44 -58 0 -3 -35 -40 -78 -83 -76 -76 -78 -77 -112 -67
-57 16 -98 12 -170 -20 -38 -16 -86 -30 -107 -30 -35 0 -143 41 -143 55 0 27
42 88 109 159 63 68 83 97 96 138 23 78 20 124 -10 152 -29 27 -32 61 -7 75 9
6 84 11 168 11 136 0 154 -2 175 -19z m-134 -569 c8 -5 -55 -75 -192 -212
l-205 -205 0 203 c0 111 2 202 4 202 2 0 23 -9 47 -20 64 -29 131 -25 209 10
64 29 114 37 137 22z"/>
<path d="M1318 1242 c-672 -671 -698 -699 -698 -734 0 -32 6 -42 47 -74 71
-54 256 -139 358 -166 77 -20 114 -23 255 -23 148 0 175 3 263 28 186 51 335
136 467 267 135 133 225 292 278 489 22 83 25 117 25 251 0 135 -3 168 -26
255 -32 121 -122 309 -176 365 -71 75 -15 121 -793 -658z m773 596 c45 -61
114 -209 141 -303 20 -71 23 -100 22 -260 0 -167 -2 -187 -28 -269 -185 -606
-852 -889 -1409 -598 -48 25 -102 58 -120 73 l-32 28 103 103 102 103 0 -71
c0 -57 4 -78 23 -105 44 -66 60 -69 364 -69 169 0 290 -4 321 -12 40 -9 57 -8
83 2 37 16 368 301 386 333 9 15 13 75 13 187 0 237 1 236 -223 175 -70 -19
-132 -35 -137 -35 -6 0 -10 80 -10 207 l0 208 172 172 c95 95 178 173 185 173
7 0 27 -19 44 -42z m-451 -546 l0 -189 -214 -57 c-117 -32 -219 -62 -227 -67
-11 -6 -15 -46 -19 -171 l-5 -163 -100 -3 c-130 -3 -149 6 -153 73 l-3 49 358
358 c197 197 359 358 360 358 2 0 3 -85 3 -188z m280 -176 c-8 -8 -74 -66
-147 -129 l-132 -115 -161 41 c-88 23 -160 44 -160 48 0 3 34 13 75 23 l75 18
30 -25 c43 -36 98 -43 153 -19 50 22 71 52 64 87 -4 22 3 25 102 53 58 17 108
31 111 31 2 1 -2 -5 -10 -13z m90 -90 c0 -92 0 -93 -23 -89 -31 6 -83 -38 -92
-78 -5 -21 0 -42 14 -71 11 -23 19 -42 18 -43 -1 -1 -57 -49 -124 -108 -67
-59 -124 -107 -127 -107 -3 0 -6 67 -6 150 l0 150 33 -20 c93 -57 189 24 174
150 l-6 46 67 57 c36 31 67 57 69 57 2 0 3 -42 3 -94z m-340 15 c0 -22 -34
-41 -73 -41 -65 0 -79 16 -26 30 24 6 49 13 54 15 20 7 45 5 45 -4z m160 -101
c0 -35 -27 -88 -49 -95 -19 -6 -61 9 -61 21 0 8 93 93 103 94 4 0 7 -9 7 -20z
m-395 -68 l180 -47 3 -164 c2 -147 1 -163 -14 -157 -8 3 -20 6 -25 6 -6 0 -6
8 1 19 41 77 -39 176 -131 163 -38 -6 -89 -56 -89 -87 0 -34 -8 -36 -73 -18
l-57 16 0 159 c0 120 3 158 13 158 6 0 93 -22 192 -48z m571 -17 c8 -33 -22
-71 -43 -54 -13 12 -18 61 -6 72 15 16 43 6 49 -18z m-493 -227 c23 -18 30
-60 14 -82 -12 -17 -17 -17 -63 -4 -38 11 -50 19 -52 37 -7 48 59 80 101 49z
m-440 -38 c86 0 104 -3 121 -19 12 -11 46 -26 76 -35 54 -15 52 -15 -123 -13
l-179 2 -24 28 c-33 39 -32 60 2 47 14 -6 71 -10 127 -10z"/>
<path d="M1294 836 c-21 -18 -28 -32 -28 -61 0 -43 39 -85 79 -85 38 0 85 46
85 83 -1 75 -80 111 -136 63z m84 -64 c-2 -10 -15 -18 -31 -20 -23 -3 -27 0
-27 22 0 13 6 26 13 29 19 7 49 -13 45 -31z"/>
</g>
</svg>
