<?xml version="1.0" standalone="no"?>
<!DOCTYPE svg PUBLIC "-//W3C//DTD SVG 20010904//EN"
 "http://www.w3.org/TR/2001/REC-SVG-20010904/DTD/svg10.dtd">
<svg version="1.0" xmlns="http://www.w3.org/2000/svg"
 width="256.000000pt" height="256.000000pt" viewBox="0 0 256.000000 256.000000"
 preserveAspectRatio="xMidYMid meet">

<g transform="translate(0.000000,256.000000) scale(0.100000,-0.100000)"
fill="#000000" stroke="none">
<path d="M280 2503 c-88 -33 -135 -147 -96 -236 8 -18 152 -169 320 -337 168
-168 306 -310 306 -315 0 -6 -22 -33 -50 -60 -27 -27 -50 -56 -50 -65 0 -8
113 -128 251 -266 l251 -251 -15 -29 c-25 -48 -40 -150 -34 -222 9 -93 35
-159 83 -209 51 -54 61 -54 272 -8 l159 34 69 -34 c148 -73 300 -84 503 -39
64 14 122 31 129 36 22 18 13 41 -33 88 l-46 46 82 18 c101 22 129 45 129 109
0 74 -24 88 -235 135 -189 41 -215 41 -215 -1 0 -16 -210 188 -808 784 -444
444 -817 812 -829 818 -22 11 -116 14 -143 4z m1400 -1348 c332 -332 602 -606
600 -609 -3 -2 -43 -11 -89 -20 -158 -30 -291 -17 -409 40 -49 24 -53 29 -47
53 3 14 9 68 12 119 6 103 -14 208 -45 235 -17 15 -323 87 -369 87 -13 0 -36
-6 -52 -14 l-27 -15 -230 230 -229 229 135 135 c74 74 137 135 140 135 3 0
277 -272 610 -605z m-314 -180 c56 -39 87 -197 60 -304 -35 -136 -106 -170
-155 -73 -26 53 -32 85 -32 171 0 88 20 153 58 193 31 32 40 34 69 13z m199
-36 c33 -7 67 -16 76 -20 39 -20 51 -215 18 -284 -12 -25 -23 -31 -94 -46 -44
-9 -81 -16 -83 -14 -2 2 4 24 12 49 22 66 21 215 -3 284 -16 47 -16 52 -2 48
9 -3 43 -10 76 -17z m720 -119 c148 -32 155 -34 155 -55 0 -21 -24 -31 -119
-50 l-84 -17 -53 53 c-34 34 -54 62 -54 76 0 13 4 23 10 23 5 0 70 -13 145
-30z"/>
<path d="M181 1094 c-12 -15 -21 -34 -21 -43 0 -25 44 -112 74 -148 l26 -31
-52 -7 c-60 -8 -114 -28 -140 -52 -28 -25 -23 -77 8 -102 31 -24 114 -51 157
-51 l29 0 -31 -39 c-46 -58 -74 -126 -66 -162 20 -89 143 -54 274 79 50 50 76
71 79 61 3 -8 30 -40 62 -71 62 -61 125 -88 204 -88 67 0 192 35 230 63 109
83 130 341 39 478 -14 22 -40 48 -57 58 -44 27 -190 55 -246 47 -86 -12 -187
-78 -227 -151 -9 -15 -20 -7 -84 57 -76 76 -161 128 -210 128 -18 0 -35 -9
-48 -26z m92 -60 c51 -26 106 -74 148 -127 22 -27 38 -51 37 -53 -12 -11 -98
22 -126 49 -50 47 -115 147 -96 147 3 0 19 -7 37 -16z m687 -62 c94 -68 105
-298 20 -395 -25 -29 -42 -37 -110 -51 -88 -19 -131 -16 -190 14 -78 40 -121
113 -128 215 -3 62 -1 76 25 125 26 49 99 120 123 120 5 0 11 -57 12 -126 3
-108 6 -128 21 -138 12 -8 22 -8 35 0 15 10 17 30 20 146 l3 136 72 -14 c39
-8 83 -22 97 -32z m-520 -194 l35 -16 -30 -13 c-61 -27 -351 -11 -322 18 33
33 248 40 317 11z m9 -119 c-31 -58 -143 -157 -198 -174 l-23 -7 27 50 c40 73
101 128 155 140 25 5 46 10 48 11 1 1 -2 -9 -9 -20z"/>
<path d="M60 280 c-17 -17 -20 -33 -20 -110 0 -147 -159 -130 1240 -130 1399
0 1240 -17 1240 130 0 147 159 130 -1240 130 -1187 0 -1200 0 -1220 -20z"/>
</g>
</svg>
