<?xml version="1.0" standalone="no"?>
<!DOCTYPE svg PUBLIC "-//W3C//DTD SVG 20010904//EN"
 "http://www.w3.org/TR/2001/REC-SVG-20010904/DTD/svg10.dtd">
<svg version="1.0" xmlns="http://www.w3.org/2000/svg"
 width="256.000000pt" height="256.000000pt" viewBox="0 0 256.000000 256.000000"
 preserveAspectRatio="xMidYMid meet">

<g transform="translate(0.000000,256.000000) scale(0.100000,-0.100000)"
fill="#000000" stroke="none">
<path d="M1140 2554 c-84 -11 -201 -39 -280 -66 -430 -152 -738 -505 -836
-958 -26 -119 -26 -381 0 -500 97 -449 402 -801 826 -955 420 -151 907 -65
1248 223 45 38 53 49 47 70 -8 34 19 62 60 62 26 0 39 8 67 43 280 345 362
822 213 1237 -117 323 -351 581 -657 724 -182 86 -305 115 -508 120 -80 2
-161 2 -180 0z m277 -305 c43 -6 119 -24 168 -40 92 -30 226 -97 232 -114 2
-6 -75 -88 -171 -184 l-174 -174 0 104 c2 208 -66 348 -176 366 -73 12 -144
-54 -183 -168 -14 -41 -18 -85 -18 -187 0 -72 -1 -132 -1 -132 -1 0 -26 11
-56 24 -79 35 -131 47 -203 47 -71 0 -112 -16 -144 -57 -45 -57 -16 -164 67
-250 l41 -42 -46 -17 c-111 -43 -111 -173 2 -294 l45 -48 -31 -7 c-46 -9 -99
-66 -99 -108 0 -29 -13 -46 -101 -133 -114 -114 -103 -114 -160 -2 -171 335
-135 737 92 1039 38 51 49 73 44 89 -10 30 31 72 57 58 15 -8 33 1 101 49 215
156 456 217 714 181z m-84 -151 c97 -128 78 -451 -29 -509 -80 -42 -164 170
-135 344 12 74 41 149 68 179 26 29 68 23 96 -14z m809 -353 c136 -253 153
-566 44 -836 -93 -231 -304 -442 -535 -535 -216 -88 -456 -96 -676 -23 -92 31
-226 97 -232 115 -2 5 37 49 86 98 l90 89 53 -22 c29 -12 83 -27 120 -33 l68
-12 0 -58 c0 -108 40 -163 120 -163 80 0 120 55 120 163 l0 58 73 12 c204 35
417 216 417 356 0 43 -4 53 -39 87 -21 22 -48 39 -60 39 -29 0 -27 5 19 57
108 123 106 246 -3 288 l-46 17 41 42 c22 22 51 64 65 91 26 52 210 248 228
242 5 -2 26 -34 47 -72z m-1219 -40 c108 -28 217 -101 280 -186 41 -58 47 -97
17 -124 -15 -14 -33 -17 -93 -13 -62 3 -87 10 -158 45 -178 88 -281 245 -186
283 33 13 76 12 140 -5z m879 -12 c16 -16 19 -28 13 -52 -17 -78 -158 -199
-282 -242 -74 -25 -167 -27 -194 -3 -71 65 92 244 279 305 73 24 155 21 184
-8z m5 -359 c17 -24 17 -30 -8 -81 -61 -125 -307 -257 -425 -227 -47 11 -59
31 -50 79 11 57 118 161 216 208 114 56 235 65 267 21z m-795 -17 c123 -60
228 -170 228 -240 0 -105 -264 -49 -406 85 -49 46 -94 117 -94 146 0 7 10 22
21 33 19 19 30 21 98 17 62 -4 91 -11 153 -41z m310 0 l46 -22 -44 -47 -44
-47 -44 47 -45 47 42 21 c23 12 42 22 42 23 0 0 21 -9 47 -22z m-391 -323
c155 -45 309 -179 309 -268 0 -56 -86 -72 -202 -36 -188 58 -362 261 -265 308
32 16 96 14 158 -4z m869 -4 c24 -24 25 -34 1 -85 -26 -57 -128 -147 -216
-191 -132 -65 -265 -58 -265 14 0 64 100 171 214 229 107 55 229 70 266 33z
m-464 -34 l31 -11 -43 -49 -43 -49 -44 49 -44 49 34 11 c19 7 37 15 41 18 3 4
13 4 21 0 9 -4 30 -12 47 -18z m-33 -340 c25 -19 21 -153 -5 -170 -13 -8 -23
-8 -35 0 -27 17 -31 151 -6 170 10 7 20 13 23 13 3 0 13 -6 23 -13z"/>
</g>
</svg>
