<?xml version="1.0" standalone="no"?>
<!DOCTYPE svg PUBLIC "-//W3C//DTD SVG 20010904//EN"
 "http://www.w3.org/TR/2001/REC-SVG-20010904/DTD/svg10.dtd">
<svg version="1.0" xmlns="http://www.w3.org/2000/svg"
 width="64.000000pt" height="64.000000pt" viewBox="0 0 64.000000 64.000000"
 preserveAspectRatio="xMidYMid meet">

<g transform="translate(0.000000,64.000000) scale(0.100000,-0.100000)"
fill="#000000" stroke="none">
<path d="M147 633 c-4 -3 -7 -27 -7 -53 0 -37 -5 -51 -26 -71 -43 -40 -67 -98
-72 -175 -4 -61 -1 -80 20 -125 14 -30 37 -65 51 -79 19 -18 27 -35 27 -62 0
-40 21 -68 50 -68 18 0 50 24 50 38 0 4 24 5 52 3 37 -2 57 -9 66 -22 24 -34
82 -19 82 22 0 9 17 29 38 45 20 15 40 33 44 38 14 21 -2 17 -37 -9 -51 -39
-55 -24 -5 21 48 43 65 74 80 138 13 57 -1 126 -35 178 -35 52 -31 71 4 22 55
-77 66 -164 31 -256 -23 -61 -23 -58 -11 -58 5 0 19 23 31 52 41 95 16 232
-54 297 -20 19 -26 34 -26 66 0 65 -45 93 -56 35 -8 -37 -22 -39 -26 -3 -4 35
-37 45 -45 14 -7 -26 -15 -27 -31 -1 -16 25 -39 26 -47 1 -9 -29 -36 -30 -68
-4 -28 22 -67 30 -80 16z m69 -34 c16 -18 20 -42 24 -153 l5 -131 5 110 c4 94
7 110 23 113 14 3 17 -4 17 -44 0 -41 5 -51 36 -81 l37 -34 -7 -142 c-4 -78
-10 -144 -12 -146 -2 -2 -25 0 -52 5 l-47 9 -6 60 c-3 33 -2 64 3 70 4 5 8 20
8 35 0 24 0 24 -20 -8 -14 -22 -27 -32 -45 -32 l-25 0 0 195 c0 183 1 195 18
195 11 0 27 -9 38 -21z m116 -46 c3 -61 5 -68 25 -71 25 -4 31 11 36 93 3 49
3 49 5 -10 3 -69 12 -88 38 -83 16 3 19 14 22 71 4 97 22 83 22 -18 0 -84 0
-85 -35 -117 l-36 -32 3 -181 c3 -174 2 -180 -17 -180 -19 0 -20 6 -17 180 l3
181 -36 32 c-35 32 -35 33 -35 117 0 101 18 115 22 18z m-42 17 c0 -5 -9 -10
-21 -10 -11 0 -17 5 -14 10 3 6 13 10 21 10 8 0 14 -4 14 -10z m80 0 c0 -5 -4
-10 -10 -10 -5 0 -10 5 -10 10 0 6 5 10 10 10 6 0 10 -4 10 -10z m65 -20 c3
-5 1 -10 -4 -10 -6 0 -11 5 -11 10 0 6 2 10 4 10 3 0 8 -4 11 -10z m-65 -30
c0 -11 -4 -20 -10 -20 -5 0 -10 9 -10 20 0 11 5 20 10 20 6 0 10 -9 10 -20z
m65 -10 c3 -5 1 -10 -4 -10 -6 0 -11 5 -11 10 0 6 2 10 4 10 3 0 8 -4 11 -10z
m-319 -57 c-52 -78 -52 -192 0 -268 27 -41 32 -64 9 -45 -7 6 -25 35 -40 63
-28 57 -34 139 -13 198 15 44 61 115 66 101 2 -6 -8 -28 -22 -49z m22 -200
l-3 -68 -19 40 c-25 54 -25 131 -1 186 l20 44 3 -68 c2 -37 2 -97 0 -134z
m388 156 c37 -82 16 -185 -50 -252 l-31 -31 -7 55 c-3 30 -6 87 -7 127 -1 70
1 75 32 106 17 18 35 34 38 35 3 0 14 -18 25 -40z m-311 -294 c0 -80 -2 -90
-19 -93 -28 -6 -36 15 -36 106 l0 83 28 -3 27 -3 0 -90z m100 -44 l40 -9 -52
-1 c-28 0 -55 4 -58 9 -7 12 15 12 70 1z"/>
</g>
</svg>
