<?xml version="1.0" standalone="no"?>
<!DOCTYPE svg PUBLIC "-//W3C//DTD SVG 20010904//EN"
 "http://www.w3.org/TR/2001/REC-SVG-20010904/DTD/svg10.dtd">
<svg version="1.0" xmlns="http://www.w3.org/2000/svg"
 width="256.000000pt" height="256.000000pt" viewBox="0 0 256.000000 256.000000"
 preserveAspectRatio="xMidYMid meet">

<g transform="translate(0.000000,256.000000) scale(0.100000,-0.100000)"
fill="#000000" stroke="none">
<path d="M1140 2554 c-84 -11 -201 -39 -280 -66 -431 -152 -738 -504 -836
-958 -26 -119 -26 -381 0 -500 111 -514 492 -895 1006 -1006 119 -26 381 -26
500 0 514 111 895 492 1006 1006 26 119 26 381 0 500 -87 405 -344 734 -708
904 -182 86 -305 115 -508 120 -80 2 -161 2 -180 0z m431 -107 c437 -114 765
-442 875 -874 13 -52 27 -130 30 -174 l7 -79 -35 0 -34 0 -12 93 c-31 251
-133 464 -306 645 -219 229 -505 352 -816 352 -486 0 -920 -313 -1074 -775
-28 -83 -56 -224 -56 -281 0 -32 -2 -34 -35 -34 -33 0 -35 2 -35 34 0 44 27
197 47 266 52 183 169 374 315 516 179 175 386 282 633 329 126 23 373 14 496
-18z m-76 -136 c95 -20 228 -68 290 -105 l37 -23 -48 -7 c-225 -30 -426 -209
-476 -423 -7 -29 -15 -53 -18 -53 -3 0 -11 24 -18 53 -19 83 -69 173 -133 242
-95 101 -191 153 -328 179 l-64 12 74 36 c159 77 283 106 464 107 90 1 157 -5
220 -18z m-885 -256 c-14 -61 -12 -194 5 -260 39 -154 163 -310 296 -373 84
-40 182 -66 228 -59 30 4 39 0 54 -19 l18 -24 -492 0 -492 0 6 73 c14 157 86
350 182 488 38 55 194 223 201 216 2 -1 -1 -20 -6 -42z m226 31 c138 -37 257
-138 322 -273 34 -72 37 -86 40 -184 2 -59 0 -114 -5 -123 -7 -12 -43 33 -162
204 -85 121 -159 220 -167 220 -27 0 -44 -13 -44 -35 0 -12 65 -115 150 -236
82 -118 145 -216 140 -217 -22 -8 -149 40 -205 76 -147 96 -225 241 -225 417
0 156 30 185 156 151z m1020 -7 c15 -17 19 -40 22 -123 4 -93 1 -111 -25 -188
-33 -94 -30 -118 13 -118 20 0 29 9 44 43 47 106 63 253 39 356 -5 24 -8 45
-6 47 2 3 39 -31 81 -73 172 -172 283 -405 303 -630 l6 -73 -492 0 -492 0 18
24 c15 19 24 23 54 19 47 -7 180 30 247 69 30 17 72 48 94 68 34 33 38 41 28
59 -15 29 -47 26 -87 -9 -18 -17 -55 -41 -81 -54 -52 -26 -157 -59 -172 -54
-5 2 58 99 141 217 82 119 149 224 149 237 0 21 -17 34 -44 34 -7 0 -82 -99
-167 -219 -93 -132 -157 -214 -161 -207 -4 6 -8 50 -8 97 0 145 44 255 144
355 65 65 117 96 206 125 76 25 122 24 146 -2z m-555 -621 c15 -47 15 -54 2
-75 -9 -13 -19 -23 -23 -23 -4 0 -14 10 -23 23 -13 21 -13 28 2 75 9 28 18 52
21 52 3 0 12 -24 21 -52z m1179 -252 c0 -113 -58 -328 -124 -459 l-41 -82
-1034 0 -1035 0 -38 75 c-64 129 -110 286 -124 428 l-7 72 1202 0 1201 0 0
-34z m-2014 -707 c104 -107 188 -169 309 -229 156 -77 405 -139 441 -110 15
13 19 55 7 63 -5 3 -51 12 -103 21 -220 38 -405 130 -570 284 l-55 51 785 1
784 0 -39 -41 c-64 -67 -192 -157 -290 -205 -84 -41 -258 -94 -309 -94 -11 0
-38 -5 -58 -11 -30 -8 -38 -15 -38 -33 0 -42 20 -49 107 -36 165 25 331 89
473 181 36 24 110 87 165 141 95 94 102 98 143 98 l44 0 -43 -52 c-359 -435
-935 -568 -1448 -337 -141 64 -344 225 -441 351 -27 35 -26 38 19 38 35 0 46
-7 117 -81z"/>
<path d="M468 1159 c-10 -5 -18 -15 -18 -22 0 -7 30 -93 66 -192 67 -182 91
-223 123 -206 9 5 47 92 87 198 73 192 77 215 38 230 -26 10 -43 -19 -93 -151
l-48 -128 -48 129 c-41 112 -64 154 -84 153 -3 0 -14 -5 -23 -11z"/>
<path d="M852 1158 c-9 -9 -12 -69 -12 -210 0 -230 -6 -218 109 -218 58 0 75
4 91 20 16 16 18 25 10 40 -9 17 -21 20 -70 20 l-60 0 0 50 0 50 49 0 c32 0
55 6 65 16 19 18 19 20 6 45 -9 15 -22 19 -65 19 l-55 0 0 50 0 50 60 0 c47 0
61 4 69 18 7 14 6 25 -5 40 -13 20 -24 22 -98 22 -50 0 -87 -5 -94 -12z"/>
<path d="M1191 1153 c-65 -34 -76 -60 -79 -191 -3 -134 9 -173 66 -206 99 -57
212 15 212 134 0 58 -12 70 -70 70 -25 0 -51 -5 -58 -12 -22 -22 -14 -49 18
-61 42 -16 39 -42 -7 -66 -18 -9 -28 -9 -45 0 -35 18 -38 27 -38 132 0 84 3
100 20 117 11 11 29 20 40 20 21 0 60 -33 60 -50 0 -5 10 -14 21 -21 18 -9 25
-7 43 10 l21 21 -20 37 c-40 73 -118 101 -184 66z"/>
<path d="M1556 1148 c-7 -13 -44 -104 -81 -202 l-68 -179 22 -19 c30 -23 55
-10 71 37 l12 35 74 0 74 0 14 -34 c8 -19 23 -39 33 -44 23 -13 53 2 53 27 0
28 -138 384 -152 393 -22 13 -37 9 -52 -14z m52 -183 c5 -16 13 -38 17 -47 6
-15 1 -18 -34 -18 -23 0 -41 3 -41 8 0 19 35 101 41 95 3 -5 11 -21 17 -38z"/>
<path d="M1812 1158 c-9 -9 -12 -69 -12 -210 0 -184 1 -198 19 -208 14 -7 24
-5 40 8 18 15 21 30 23 126 l3 110 74 -115 c95 -144 105 -154 135 -123 13 13
16 46 16 210 l0 194 -25 12 c-46 21 -55 0 -55 -134 l0 -120 -81 124 c-96 145
-108 155 -137 126z"/>
</g>
</svg>
