<?xml version="1.0" standalone="no"?>
<!DOCTYPE svg PUBLIC "-//W3C//DTD SVG 20010904//EN"
 "http://www.w3.org/TR/2001/REC-SVG-20010904/DTD/svg10.dtd">
<svg version="1.0" xmlns="http://www.w3.org/2000/svg"
 width="256.000000pt" height="256.000000pt" viewBox="0 0 256.000000 256.000000"
 preserveAspectRatio="xMidYMid meet">

<g transform="translate(0.000000,256.000000) scale(0.100000,-0.100000)"
fill="#000000" stroke="none">
<path d="M350 2550 c-221 -47 -380 -277 -343 -496 41 -239 267 -404 500 -366
275 46 439 328 342 588 -42 110 -144 212 -255 254 -65 24 -179 33 -244 20z
m236 -104 c77 -35 145 -103 181 -180 24 -52 28 -74 28 -146 0 -72 -4 -94 -28
-146 -36 -77 -104 -145 -182 -181 -51 -24 -73 -28 -145 -28 -72 0 -94 4 -145
28 -78 36 -146 104 -182 181 -24 52 -28 74 -28 146 0 72 4 94 28 145 86 183
293 263 473 181z"/>
<path d="M495 2338 c-14 -18 -47 -63 -73 -100 l-49 -68 -33 25 c-53 39 -69 34
-130 -47 -30 -40 -54 -82 -54 -93 -1 -28 230 -205 264 -202 19 2 51 39 152
181 74 104 128 189 128 202 0 17 -20 37 -79 78 -43 31 -84 56 -90 56 -5 0 -22
-15 -36 -32z m63 -183 c-27 -38 -71 -100 -96 -137 -26 -37 -52 -66 -58 -64 -6
3 -43 28 -82 56 -75 54 -79 65 -37 100 13 11 21 8 55 -15 22 -15 46 -25 54
-22 8 3 45 48 82 100 l67 95 33 -21 32 -22 -50 -70z"/>
<path d="M2039 2142 c-39 -20 -63 -42 -89 -80 -32 -48 -37 -52 -75 -52 -22 0
-59 -9 -81 -19 -122 -56 -151 -250 -53 -354 l40 -41 -15 -36 c-9 -19 -21 -90
-28 -158 l-13 -123 -35 48 c-35 47 -36 49 -21 88 23 65 19 200 -8 260 -43 97
-138 163 -271 187 l-60 12 6 47 c6 43 4 50 -21 74 -21 22 -33 26 -60 22 -27
-4 -38 0 -61 24 -51 53 -126 33 -149 -42 -4 -10 -15 -19 -25 -19 -10 0 -31
-11 -46 -23 -34 -30 -36 -72 -4 -116 12 -18 19 -36 14 -40 -5 -4 -43 -32 -84
-63 l-75 -55 -91 5 c-68 3 -106 0 -150 -13 -139 -40 -224 -112 -224 -191 0
-15 -13 -41 -31 -62 -34 -39 -59 -90 -59 -122 0 -19 -6 -20 -97 -20 -54 0
-104 -4 -112 -9 -21 -13 -38 -128 -53 -338 -9 -146 -9 -201 0 -269 49 -334
290 -587 619 -650 93 -17 1192 -21 1289 -3 277 49 501 232 593 485 43 116 55
215 47 379 -8 166 -34 375 -48 393 -7 7 -37 12 -84 12 -83 0 -82 -1 -59 74 8
27 15 71 15 97 0 45 2 48 31 54 43 10 103 73 123 130 22 67 21 152 -3 191 -21
34 -80 84 -99 84 -21 0 -52 39 -52 65 0 64 -85 164 -157 184 -67 19 -126 13
-184 -17z m199 -78 c39 -29 74 -102 68 -141 -6 -40 8 -56 69 -78 70 -26 95
-54 95 -107 -1 -77 -53 -158 -101 -158 -9 0 -44 27 -77 59 -81 79 -147 105
-254 99 -62 -4 -90 -11 -141 -37 -38 -19 -70 -29 -80 -25 -40 15 -65 107 -47
172 15 56 47 76 134 82 l71 5 19 40 c22 49 42 72 81 97 39 25 124 20 163 -8z
m-1007 -132 c16 3 29 3 29 2 0 -2 -4 -14 -9 -27 -8 -21 -19 -26 -63 -32 -29
-4 -68 -13 -88 -20 -32 -11 -36 -11 -53 11 -22 29 -21 34 1 34 20 0 52 31 71
68 l12 23 36 -31 c27 -24 43 -31 64 -28z m200 -182 c11 -6 19 -21 19 -35 0
-20 -24 -45 -44 -45 -10 0 -36 32 -36 45 0 13 26 45 36 45 3 0 14 -5 25 -10z
m59 -74 c0 -20 -19 -31 -32 -18 -6 6 -7 15 -4 21 10 16 36 13 36 -3z m629 -32
c52 -15 130 -75 152 -116 12 -23 -6 -88 -24 -88 -7 0 -100 16 -207 35 -107 19
-196 35 -197 35 -2 0 -3 5 -3 11 0 22 43 70 85 94 36 22 60 29 136 44 3 1 29
-6 58 -15z m-1325 -46 c14 -6 35 -26 45 -44 14 -23 31 -36 60 -44 22 -6 54
-22 71 -36 26 -22 30 -33 30 -73 0 -26 5 -52 12 -59 7 -7 37 -12 68 -12 36 0
70 -8 100 -23 l45 -22 -119 -3 c-101 -2 -122 0 -138 15 -18 16 -21 16 -51 0
-25 -14 -51 -17 -106 -15 l-73 3 -12 34 c-23 69 -82 67 -80 -3 l1 -36 -148 0
c-138 0 -149 1 -149 18 0 20 45 87 73 111 10 8 17 28 17 51 0 59 56 107 160
136 58 16 162 17 194 2z m1229 -212 c103 -18 190 -36 193 -39 3 -3 -2 -19 -11
-36 l-16 -31 -191 0 -190 0 6 31 c3 17 6 49 6 70 0 22 3 39 8 39 4 0 91 -15
195 -34z m-505 -32 c17 -4 48 -21 69 -40 l38 -33 -142 -1 c-82 0 -143 4 -143
9 0 13 55 51 88 61 35 11 53 11 90 4z m-1308 -193 c-50 -53 -81 -119 -87 -191
-5 -51 -2 -67 21 -114 15 -31 45 -71 67 -89 21 -19 39 -39 39 -46 0 -23 40
-89 66 -110 22 -17 25 -26 20 -54 -8 -43 9 -130 36 -187 29 -59 107 -136 163
-161 25 -11 45 -24 45 -29 0 -5 25 -27 57 -49 48 -35 52 -41 32 -41 -14 0 -52
7 -84 15 -185 47 -349 183 -435 360 -77 159 -87 324 -44 683 l6 52 68 0 67 0
-37 -39z m464 23 c9 -23 6 -24 -40 -13 -70 18 -171 -26 -189 -81 -9 -28 -18
-25 -70 20 l-46 40 25 12 c14 6 26 17 26 25 0 10 30 13 144 13 124 0 145 -2
150 -16z m151 -31 c-16 -27 -30 -52 -33 -58 -5 -8 -31 73 -32 98 0 4 21 7 46
7 l46 0 -27 -47z m375 39 c0 -10 -62 -233 -88 -317 l-19 -60 -69 2 c-91 3
-170 24 -165 43 23 88 24 101 8 135 l-16 34 51 86 51 85 123 0 c68 0 124 -4
124 -8z m490 -79 c12 -49 40 -143 62 -210 l39 -122 -17 -51 c-23 -69 -15 -164
19 -232 l26 -52 -19 -43 c-24 -55 -102 -133 -161 -161 -71 -34 -152 -46 -224
-32 -69 13 -141 50 -180 90 -25 26 -27 35 -29 117 -1 80 -5 97 -36 159 l-34
69 27 100 c15 55 47 168 70 250 24 83 47 162 51 178 l6 27 189 0 188 0 23 -87z
m431 59 c-35 -50 -113 -120 -164 -148 -44 -24 -55 -26 -100 -18 -45 8 -52 12
-59 39 -4 17 -5 58 -2 93 l7 62 169 0 169 0 -20 -28z m340 -94 c7 -68 14 -193
14 -278 0 -135 -3 -165 -23 -230 -36 -115 -86 -195 -176 -286 -88 -88 -169
-138 -281 -175 -68 -23 -80 -23 -540 -26 l-470 -3 36 20 c41 22 94 70 125 113
l20 28 59 -39 c145 -96 304 -107 456 -31 l57 28 38 -20 c61 -32 168 -24 226
16 24 17 57 51 73 77 23 35 38 48 64 53 95 19 187 90 232 180 20 41 24 65 24
135 -1 103 -25 161 -95 229 l-45 45 33 130 c18 72 35 137 37 144 3 8 25 12 63
12 l59 0 14 -122z m-1754 -37 c27 -22 56 -48 66 -56 21 -18 22 -51 3 -96 -12
-28 -12 -39 0 -72 19 -54 18 -79 -6 -105 -34 -36 -68 -28 -119 27 -32 33 -57
50 -81 55 -56 10 -64 19 -66 79 -1 30 -5 64 -9 76 -3 11 -1 38 5 60 25 93 120
108 207 32z m-293 -107 c3 -26 6 -62 6 -81 0 -63 49 -125 110 -138 16 -3 49
-26 73 -51 36 -35 42 -46 31 -55 -21 -17 -77 -2 -119 31 -32 25 -43 29 -78 24
-51 -7 -92 20 -102 67 -4 17 -15 46 -26 63 -25 43 -33 105 -17 136 16 29 52
50 89 50 24 0 27 -5 33 -46z m1814 -160 c2 -12 -4 -24 -12 -27 -19 -7 -40 18
-32 39 8 22 40 13 44 -12z m-163 -54 c0 -18 -6 -26 -23 -28 -24 -4 -38 18 -28
44 3 9 15 14 28 12 17 -2 23 -10 23 -28z m-1067 -144 c4 -21 -14 -37 -35 -29
-14 5 -18 35 -6 47 12 12 38 1 41 -18z"/>
<path d="M1424 901 c-78 -48 -144 -188 -144 -306 0 -70 29 -128 81 -162 37
-25 52 -28 119 -28 67 0 82 3 119 28 79 52 100 152 61 280 -36 115 -115 207
-179 207 -14 0 -40 -9 -57 -19z m70 -153 c23 -37 -36 -77 -63 -44 -8 10 -11
26 -7 42 5 20 12 25 33 22 14 -2 31 -11 37 -20z"/>
</g>
</svg>
